<?xml version="1.0" encoding="utf-8"?>
<!-- Generator: Adobe Illustrator 25.0.0, SVG Export Plug-In . SVG Version: 6.00 Build 0)  -->
<svg version="1.1" id="Layer_1" xmlns="http://www.w3.org/2000/svg" xmlns:xlink="http://www.w3.org/1999/xlink" x="0px" y="0px"
	 viewBox="0 0 91 70" style="enable-background:new 0 0 91 70;" xml:space="preserve">
<style type="text/css">
	.st0{fill-rule:evenodd;clip-rule:evenodd;fill:#4AD295;}
</style>
<g>
	<path class="st0" d="M67.5,40.5c0-0.1-0.1-0.3-0.1-0.4c-0.3-0.5-0.3-0.8-0.7-1.5c-0.3-0.5-1.5-2.2-2-2.8c0,0-0.1-0.1-0.1-0.1
		c-0.3-0.3-0.6-0.6-0.8-0.9c-0.1-0.2-0.1-0.2-0.3-0.3c-0.2-0.3-1.8-1.6-2.1-1.8c-1.3-1.1-2.5-1.9-3.9-2.8c-0.4-0.3-0.9-0.6-1.3-0.9
		l-2.1-1.3c-0.2-0.1-0.5-0.3-0.7-0.4c-0.9-0.7-1.8-1.1-2.8-1.7c-1.1-0.7-1.4-0.6-1.6-1.8l-0.4-2.9c-0.1-0.6-0.1-1.4-0.2-2
		c-0.2-1-0.3-2-0.4-3c-0.1-1-0.2-2-0.3-3c0-0.3-0.1-0.7-0.1-1l-0.2-3.1c0-0.2,0-0.4,0-0.6c-0.2-1.6-0.2-2.7-0.5-4.5
		c-0.1-0.3-0.2-0.6-0.2-0.9c-0.3,0-0.3,0-0.3,0.3c-0.1,0.3-0.2,0.4-0.2,0.7c0,0.1,0,0.1-0.1,0.2c-0.4,0.7-0.1,1.8,0,2.6
		c0.2,2.2,0.4,4.3,0.6,6.5c0.2,3.7,0.7,3.1-0.9,3.1c-0.4,0-2,0.2-2.1,0.1l-0.3-2c-0.2-1.5-0.5-3.1-0.6-4.6l-0.4-2.5
		c0-0.2-0.1-0.4-0.1-0.6c0-0.4,0.1-0.5-0.3-0.4c-0.1,0.3-0.2,0.6-0.3,0.8c-0.1,0.1,0,0-0.1,0.1c-0.2,0.5-0.4,0.7-0.2,1.3
		c0.2,0.7,0.2,1.4,0.3,2c0.1,0.4,0.9,5.6,0.8,6.1l-1.6,0.5c-0.6,0.2-1.3,0.5-1.9,0.8c-0.1,0.1-0.2,0.1-0.3,0.2c-0.3,0-0.2-1-0.3-1.1
		c-0.1-0.4-0.1-1.9-0.2-2.4l-0.3-2.8c0-0.2-0.1-0.3-0.1-0.5c0-0.5-0.2-1.9-0.2-2.3l-0.4,0.3c0,0.4-0.1,0.2-0.3,0.5
		c-0.1,0.2-0.1,0.3-0.2,0.5c-0.3,0.5-0.1,0.7-0.2,1.3c0,0.3,0,0.4,0.1,0.6c0.1,0.2,0.4,3.4,0.5,3.9c0.1,0.5,0,0.9,0.1,1.4
		c0,0.3,0.1,1,0.1,1.3c-1.2,0.9-1.7,1.5-2.7,2.6l-0.4,0.5c-0.5,0.6-1.1,1.4-1.4,2.1l-0.6,1.2c-0.3,0.6-0.3,1.3-0.7,1.9L30,26.5
		c-1.8-0.2-2.7-0.2-4.5-0.2c-1,0-1.9,0.2-2.9,0.3c-0.2,0-0.4,0.1-0.7,0.1c-0.6,0.1-2.5,0.7-3,1c-0.2,0.1-0.4,0.2-0.6,0.2
		c-0.2,0.1-0.3,0.1-0.6,0.2c-0.9,0.4-2.2,1.3-2.9,1.9c-0.4,0.4-0.8,0.8-1.2,1.1c-1,0.9-1.9,1.8-2.5,3.1c-0.3,0.8-0.7,1.5-1,2.2
		c-0.1,0.2-0.1,0.4-0.2,0.6c-0.1,0.2-0.1,0.4-0.2,0.6c-0.2,0.9-0.5,2.6-0.5,3.5c0,0.3,0,0.5,0,0.8c0,0.3,0.2,1.4,0.2,1.8
		c0.1,0.4,0.2,0.9,0.3,1.3c0,0.1,0,0.2,0.1,0.3c0.1,0.4,0.3,0.8,0.4,1.2c0.1,0.2,0.1,0.4,0.2,0.6c0.3,0.6,1,2,1.5,2.5
		c0.4,0.4,0.7,1,1,1.4l-0.7,0.5c-0.5,0.3-1.2,0.6-1.6,0.9c-0.4,0.3-1.1,0.7-1.5,1c-0.5,0.3-1,0.7-1.4,1.1c-0.1,0.1-0.2,0.2-0.4,0.3
		C7.3,55,7.2,55,7.1,55.1c-0.5,0.4-0.9,0.8-1.3,1.2c-0.2,0.2-0.4,0.4-0.6,0.6l-0.6,0.6c-0.8,0.8-1,1.1-1.7,2.1
		c-0.2,0.3-0.4,0.4-0.3,0.8l0.8-0.4c0,0,1.1-1.4,1.8-1.9C5.7,57.8,6,57.4,6.5,57c0.3-0.2,0.4-0.4,0.7-0.6c0.2-0.2,0.5-0.3,0.7-0.5
		c0.2-0.2,0.4-0.4,0.7-0.5c0.2-0.1,0.2-0.1,0.4-0.2c0.4-0.4,1.4-0.9,1.8-1.2c0.1-0.1,0.3-0.2,0.4-0.3c0.4-0.3,0.8-0.4,1.2-0.6
		c0.3-0.1,0.4-0.3,0.8-0.5c0.3-0.1,0.5-0.2,0.8-0.4c0.5,0.5,1,1.1,1.6,1.5l0.7,0.5c0.1,0.1,0.2,0.2,0.3,0.3c1.2,0.9,3.3,2.2,4.7,2.7
		c0.9,0.4,1.7,0.7,2.6,1c0.8,0.3,1.1,0.3,2,0.5c0.4,0.1,0.5,0.2,0.9,0.3c0.8,0.1,2,0.4,2.7,0.4c0.5,0,1.4,0,1.8,0.1
		c0.3,0.1,0.8,0.1,1.2,0.1l1.2,0.1c0.2,0,0.3,0.1,0.6,0.1c0.3,0,0.2,0,0.5,0c0.2,0,3.4,0,3.6-0.1l1.1-0.1c0.4,0,0.5,0.1,1,0
		c0.3-0.1,0.7-0.2,1-0.2c0.4,0,0.8-0.1,1.2-0.1c0.5-0.1,1.7-0.4,2.1-0.1c-0.2,0.3-0.4,0.5-0.7,0.7c-0.1,0.1-0.3,0.2-0.4,0.3
		c-0.7,0.5-1.3,1-2,1.5c-0.7,0.5-1.3,1-1.9,1.6c-0.4,0.4-0.8,0.5-0.8,1.2l0.9-0.4c0.2-0.1,1.3-0.8,1.6-0.9c0.6-0.4,0.9-0.7,1.5-1.1
		c0.5-0.3,0.9-0.8,1.3-1.2c0.3-0.3,0.7-0.6,0.9-0.9c0.4-0.4,0.6-0.5,0.9-1c0.1-0.2,0.1-0.2,0.1-0.6c0-0.7-0.4-0.8-1.1-0.7
		c-0.8,0-2.8,0.4-3.9,0.5s-2,0.1-3,0.2c-0.4,0-0.1,0.1-1.1,0.1c-0.8,0-1.6,0.1-2.4,0c-0.4-0.1-3.2-0.2-3.5-0.2
		c-1.2,0-2.2-0.2-3.4-0.4c-0.9-0.2-2.1-0.5-2.9-0.8c-0.2-0.1-0.3-0.1-0.5-0.1l-1.3-0.5l1.9-1c0.6-0.3,1.2-0.7,1.9-1
		c0.3-0.2,0.9-0.5,1.2-0.7c0.8-0.5,1.6-0.9,2.5-1.4c0.1-0.1,0.2-0.1,0.3-0.2c0.1-0.1,0.2-0.1,0.3-0.2c0.2-0.1,0.4-0.2,0.6-0.3
		c0.4-0.2,0.9-0.5,1.2-0.7c0.9-0.4,1.6-1,2.4-1.4c0.2-0.1,1-0.6,1.2-0.8c0.1-0.1,0.1-0.1,0.3-0.2c0.1-0.1,0.1-0.1,0.3-0.2
		c0.2-0.2,0.3-0.3,0.5-0.4c0.3-0.2,0.4-0.2,0.5-0.5c0.4-0.9,0.4-1.4,0.3-2.4c-0.1-0.8-0.4-1.2-0.1-1.5c0.2-0.2,0.3-0.2,0.5-0.4
		c0.1-0.1,0.4-0.4,0.5-0.4c0.3,0.6,0.7,1.3,1.4,1.5c0.4,0.1,1,0,1.3-0.1c0.5-0.2,0.5-0.3,0.8-0.7c0.4-0.6,0.4-1.7,0.1-2.4
		c-0.1-0.2-0.1-0.4-0.2-0.5c-0.1-0.2-0.2-0.3-0.3-0.4c-0.2-0.4-0.3-0.7-0.8-0.6l-0.2,0.8c-0.2,1,0.8,1.6,0.7,2.3l-0.9,0.2
		c-0.4,0-1.1-0.8-1.2-1.2c-0.1-0.4,0-0.6-0.2-0.9l-0.2,0c-0.3,0.3-0.8,0.8-1,1c-0.2,0.2-0.9,0.7-1.2,0.9c-0.6-0.7-1.3-1.6-2.3-1.7
		c-0.7,0-1.1,0.2-1.4,0.5c-0.4,0.4-0.5,0.8-0.7,1.3c-0.1,0.6-0.3,1.1-0.1,1.7c0.4,1.3,1.8,1.1,2.7,0.7c0.3-0.1,0.4-0.2,0.7-0.3
		c0.2-0.1,0.3-0.2,0.6-0.3c0.8,1.8,0.9,1.7,0.2,2.3c-0.9,0.6-2.3,1.4-3.3,2c-0.4,0.2-0.8,0.5-1.1,0.7c-0.4,0.2-0.8,0.4-1.1,0.6
		c-0.7,0.5-1.6,0.8-2.3,1.2L25,53.7c-0.1,0.1-0.2,0.1-0.3,0.2c-0.1,0.1-0.2,0.1-0.3,0.2c-0.5,0.3-1.1,0.6-1.6,1
		c-0.2,0.1-0.3,0.2-0.5,0.4c-0.2,0.1-0.3,0.3-0.5,0.3c-0.8-0.4-2.1-1-2.7-1.6c0.6-0.2,1.2-0.4,1.8-0.7c0.2-0.1,0.4-0.2,0.6-0.3
		c0.2-0.1,0.4-0.2,0.6-0.3c0.3-0.2,0.8-0.4,1.1-0.6c0.2-0.1,1.5-0.8,1.7-0.9c0.5-0.3,0.7-0.4,1.1-0.6c1-0.5,2.4-1.2,3.3-1.8
		c0.7-0.5,0.7-0.4,1.5-1c0.2-0.2,0.3-0.2,0.5-0.3c1.4-1.3,0.9-2.9,0-4.3c-0.4-0.7-0.4-1.5-1-1.5L30,42.9c-0.2,0.8,0.9,2.3,1.1,3.2
		c-0.9,0.7-1.2,1-2.3,1.6c-1.1,0.6-2.1,1.2-3.3,1.8c-0.5,0.3-1.1,0.6-1.7,0.9c-0.5,0.3-1.1,0.7-1.6,0.9c-0.2,0.1-0.3,0.1-0.4,0.2
		c-0.1,0.1-0.2,0.2-0.4,0.2c-0.8,0.4-1.6,0.9-2.4,1.4c-0.2,0.1-0.6,0.4-0.8,0.5l-1.3-1c-0.1-0.1-0.2-0.2-0.3-0.3
		c-0.3-0.3-0.7-0.4-0.9-0.8l1.2-0.6c0.2-0.1,0.4-0.1,0.7-0.2c0.6-0.3,1.3-0.5,1.9-0.8c2-0.8,3.8-1.5,5.8-2.4
		c0.2-0.1,0.4-0.1,0.7-0.2c0.2-0.1,0.4-0.2,0.6-0.3c0.7-0.3,1.2-0.7,1.8-0.9c0.2-0.1,0.4-0.1,0.5-0.4c0.1-0.2,0.2-0.4,0.3-0.6
		c0.1-0.5,0.2-1.1-0.1-1.5c-0.2-0.3-0.7-0.7-1.1-0.7c-0.4-0.1-1.2-0.1-1.7-0.1c-0.3,0-0.5,0-0.8,0c-0.3,0-0.5-0.1-0.7-0.1
		c-0.5-0.1-1-0.2-1.2-0.5c0.8-1.1,0.3-0.6,1.2-1.3c0.4-0.3,1.1-0.8,1.5-0.9c1.1-0.4,0.4,0.4,1.4,0.8c0.3,0.1,0.8,0.1,1.1,0
		c0.5-0.1,0.5-0.4,0.8-0.4c0.6,0.6,1,0.8,1.9,0.5c0.7-0.2,1.1-0.7,1.6-1.2l0.5,0.7c0.7,0.8,1.3,0.3,1.8,0.1c0.4-0.2,0.4-0.2,0.6-0.6
		c0.2-0.6,0.2-1.5-0.1-2c-0.1-0.2,0-0.3-0.1-0.5c-0.2-0.4-0.8-1.4-1-0.5c-0.4,1.7-0.2,0.8,0.4,2.2l-0.7,0c-0.5-0.2-0.6-1.1-0.7-1.3
		c-0.2-0.3-0.5-0.2-0.6,0c-0.3,0.4-0.5,0.8-0.9,1.1c-0.2,0.2-1,0.7-1.4,0.5c-0.4-0.2,0.1-1.6-0.7-1.4c-0.5,0.1-0.9,1.4-1.8,1.3
		c-0.9-0.1-0.3-1.4-1.9-1c-0.3,0.1-0.5,0.2-0.7,0.3c-1,0.5-2.2,1.3-2.8,2.3c-0.2,0.3-0.3,1.2-0.4,1.6c-0.1,0.7,0.1,1.2,0.5,1.5
		c0.9,0.6,2.3,0.7,3.4,0.7c0.4,0,0.6,0,0.9,0.1c0.3,0.1,0.5,0.1,0.7,0.3l-2.7,1.3c-0.3,0.1-2.5,1-2.9,1.1c-0.5-0.8-1-1.5-1.4-2.4
		c-0.1-0.2-0.2-0.7-0.3-1c-0.4-1.5-0.4-3-0.1-4.5c0.1-0.6,0.4-1.4,0.7-1.9c0.1-0.3,0.3-0.5,0.5-0.8c0.1-0.2,1-1.1,1.2-1.3
		c0.7-0.5,1.6-1,2.5-1.2l0.1,0.6c0,0.3,0,0.5,0,0.7c0.1,0.4,0.2,0.9,0.2,1.3c-0.4,0.2-0.9,0.4-1.3,0.7l0.2,0.4
		c0.3,0,1.6-0.5,2.2-0.6c0.3-0.1,0.6-0.1,0.8-0.3c0.2-0.2,0.3-0.5,0.4-0.8c0.1-0.9-0.3-1.3-1.1-1.1c-0.3,0.1-0.5,0.4-0.6,0.4
		c-0.3-0.6-0.1-1-0.3-1.3c0.6-0.2,1.1-0.4,1.7-0.3c0.4,0.1,1.4,0.1,1.8,0.1c1.1,0,3.7,0.5,4.7,0.9l0.8,0.2c0.4,0.1,1.5,0.6,1.9,0.7
		c0.6,0.2,0.4,0.2,0.9,0.5c0.3,0.1,0.6,0.3,0.9,0.4c0.6,0.3,1.1,0.7,1.7,1c0.8,0.5,1.5,1.1,2.3,1.7c0.5,0.4,1,0.7,1.5,1.2
		c0.1,0.1,0.2,0.2,0.3,0.3l2.2,2c0,0,0.1,0.1,0.1,0.1c0.3,0.2,0.6,0.5,0.8,0.8c0.4,0.3,1,1,1.3,1.3c0.9,0.9,1.8,1.7,2.6,2.7
		c0.2,0.2,0.5,0.4,0.7,0.7c0.2,0.3,0.4,0.4,0.6,0.7c0.1,0.1,0.2,0.2,0.4,0.3l1.3,1.4c0.1,0.1,0.2,0.2,0.3,0.3
		c0.2,0.2,0.5,0.4,0.7,0.6c0.2,0.2,0.8,0.7,1.1,0.9c0.5,0.4,0.9,0.8,1.4,1.2c0.6,0.5,1.2,1,1.9,1.4c0.5,0.4,4,1.7,4.8,1.8
		c0.4,0,0.7,0.1,1.1,0.2c1.1,0.3,4.1,0.5,5.4,0.5c0.6,0,1.2,0.1,1.8,0.1c0.4,0,0.9,0,1.3,0c0.9,0.1,2.8-0.1,3.8-0.1l3.8-0.1
		c0.2,0,0.3,0,0.6,0c1.2,0,1,0.2,1.9-0.6c0.2-0.1,0.1-0.2,0.1-0.5c-0.8-0.2-0.9-0.2-1.6-0.2c-0.1,0-0.2,0-0.3,0
		c-0.2,0-0.4,0.1-0.6,0.1c-0.2,0-0.4,0-0.7,0c-0.5,0.1-0.9,0.1-1.4,0.1c-0.3,0-0.4,0.1-0.6,0.1c-1,0-1.9,0-2.9,0c-0.2,0-0.5,0-0.7,0
		c-0.2,0-0.4,0.1-0.6,0c-0.4-0.1-0.9,0-1.4,0c-1.6,0-5.8-0.2-7.4-0.6c-0.2-0.1-0.3-0.1-0.5-0.2c-0.6-0.1-1.7-0.4-2.2-0.7l1-1
		c0.5-0.5,1.1-1.4,1.4-1.6c1.2,0.5,1.2,0.5,2.5,0.8c0.8,0.2,2.8,0.4,3.7,0.4c0.7,0,1.8,0.1,2.3,0c0.3,0,0.6,0,0.8,0l1.5,0
		c0.3,0,0.4,0,0.7,0l3-0.2c0.8-0.1,1.5,0,2.3-0.1c0.3,0,0.5,0,0.8,0c0.5,0,1-0.1,1.5-0.1c1.1-0.1,1.6-0.1,2.5-0.7
		c0.5-0.3,0.9-0.4,0.8-0.8c-0.9,0.1-2,0.2-2.9,0.2c-0.5,0-0.9,0.1-1.4,0.1c-0.5,0-0.9,0.1-1.4,0.1c-1.4,0.1-2.8,0.2-4.2,0.3
		c-0.4,0-0.9,0.1-1.3,0.1c-1.4,0-3.1,0.2-4.4,0.1c-0.4,0-0.9-0.1-1.4-0.1c-0.5,0-0.9,0-1.4-0.1c-0.4-0.1-0.8-0.1-1.2-0.2
		c-0.7-0.2-1.6-0.5-2.2-0.9l0.4-0.8c0.3-0.6,0.4-1.1,0.5-1.7c0.1-0.5,0.2-0.9,0.4-1.3l0.2-1.4c0.1-1.2,0-2.9-0.2-4.1
		C67.7,41.2,67.6,41,67.5,40.5z M43.7,17.7c0.4-0.3,1.7-0.3,2.3-0.3c1.3,0,1,0.2,1.1,1.4l0.4,3.4c0,0.3,0.2,0.8,0.1,1
		c-0.4-0.1-0.4-0.2-0.7-0.5c-0.5-0.3-1.7-1.2-2.1-1.5c-0.7-0.6-0.9-0.7-1-1.4c-0.1-0.4-0.1-0.7-0.1-1.1
		C43.8,18.6,43.7,17.9,43.7,17.7z M38.6,19.3c0.1,0.7,0.1,1.5,0.2,2.2c0.1,1.1,0.2,2.3,0.3,3.4c0.1,0.8,0,0.7,0.2,1.7
		c0,0.2,0,0.4,0.1,0.6c0.1,0.4,0.2,2.5,0.4,2.7c0.1,0.2,1,0.6,1.2,0.7c0.4,0.2,1.4,1,2.2,1.5c0.5,0.3,1,0.7,1.4,1
		c0.1-0.2,0.1-0.2,0-0.8c-0.1-0.3-0.1-0.6-0.2-0.9c-0.2-1.7-0.7-4-1-5.7c-0.3-1.5-0.5-4.2-0.7-5.9c-0.1-1-0.1-1-0.3-2
		c-0.4,0-2,0.6-2.5,0.8C39.5,18.8,38.9,19.1,38.6,19.3z M49.3,33.6c-0.1-0.7-0.2-1.5-0.3-2.2c-0.1-0.4-0.1-0.8-0.1-1.1
		c-0.1-0.7-0.2-1.4-0.3-2.2c-0.1-0.8-0.1-1.5-0.3-2.2c-0.2-0.8,0.2-0.4-1.1-1.3c-1-0.7-1.1-0.8-2.1-1.6l-0.6-0.6
		c-0.2,0.2-0.1,0.4,0,1c0.2,1.4,0.6,3.7,0.9,5.3L46,33c0.2,1.4,0,1.3,1.5,2.3c0.4,0.2,2,1.6,2.1,1.6c0.1-0.3-0.1-1.8-0.1-2.2
		c0-0.2,0-0.4-0.1-0.5C49.3,33.9,49.3,33.8,49.3,33.6z M32.3,26.8c0-0.5,0.3-0.8,0.4-1.1c0.1-0.2,0.1-0.3,0.2-0.5
		c0.1-0.2,0.2-0.3,0.3-0.5c0.5-0.8,0.6-0.9,0.9-1.4c0.3-0.5,0.3-0.4,0.6-0.9c0.3-0.4,0.8-0.8,1.1-1.1c0.2-0.3,1.3-1.3,1.5-1.4
		c0.2,0.5,0.2,0.5,0.2,1.1l0.2,2.3c0.2,1.4,0.3,3.2,0.5,4.6c0,0.2,0,0.4,0.1,0.6c0,0.3,0.1,0.5-0.2,0.5l-1.2-0.6
		c-0.5-0.3-1.6-0.6-2.3-0.9C33.8,27.3,32.6,27.1,32.3,26.8z M63.8,49.5c0.2,0.1,0.3,0.2,0.5,0.3l1.4,0.8c0.6-0.6,1.2-3.2,1.4-4.1
		c0.2-1.8,0.1-3.6-0.5-5.3c-0.8-2.2-0.5-1.6-1.7-3.4c-0.2-0.3-2.4-2.7-2.8-2.9l-0.8-0.8l-1.2-0.9c-0.9-0.7-2.1-1.5-3.1-2.1
		c-1.5-1-4.8-3.2-6.3-4c-1.2-0.7-1.1-1.1-0.9,0.9c0.1,0.6,0.1,1.2,0.5,1.5l7.3,5.1c0.2,0.2,0.4,0.3,0.6,0.5l1.6,1.5l1,1.1
		c0.6,0.8,1.2,1.6,1.6,2.6l0.5,1.6c0.2,0.6,0.1,0.8,0.2,1.3c0,0.1,0.1,0.4,0.1,0.5c0,1.4,0,1.7-0.3,3.1c-0.2,1-0.2,0.4-0.3,0.8
		l-0.3,0.8c0.1,0.1,0.2,0.2,0.4,0.3L63.8,49.5z M61.9,46.4c-0.3,0.7-0.2,0.9-0.6,1.2c-0.5-0.4-0.4-0.2-0.9-0.8
		c-0.3-0.3-0.5-0.6-0.9-0.9c-0.2-0.2-0.5-0.4-0.7-0.6c-0.2-0.3-1.1-1.2-1.5-1.5c-0.2-0.2-0.2-0.3-0.4-0.4l-1.4-1.2
		c-0.6-0.4-1.6-1.5-2.2-2c-0.3-0.2-0.6-0.5-0.9-0.8l-1.4-1.2c-0.2-0.2-0.2-0.3-0.2-0.6c-0.1-1.1-0.2-2.2-0.2-3.3
		c0-0.6-0.1-1-0.2-1.6c0-0.3-0.2-1.3,0-1.5l0.6,0.4c0.2,0.1,0.3,0.3,0.5,0.4l4.3,3.1c0.3,0.2,0.7,0.5,1.1,0.8c0.4,0.3,0.6,0.5,1,0.8
		c0.4,0.3,0.6,0.6,0.9,0.8c0.3,0.3,0.6,0.6,0.9,0.9c0.8,0.8,1.7,2.2,2.2,3.3c0.5,1.1,0.7,2.8,0.3,4C62.1,45.9,62,46,62,46.1
		S61.9,46.3,61.9,46.4z M14.4,49.5l0.6,0.7c0.2-0.2,0.5-0.2,0.8-0.4c0.3-0.1,0.5-0.2,0.8-0.4c0.6-0.3,1.1-0.4,1.7-0.7
		c0.5-0.3,1.1-0.5,1.6-0.7l1.7-0.7c-0.1-0.2-0.6-0.6-0.8-1L20,45.3c-0.2-0.4-0.7-1.6-0.9-2.2c-0.4-1.7-0.6-2.6-0.4-4.3l0.1-0.9
		c0.1-0.6,0.3-1,0.5-1.5c0.2-0.4,0.9-1.5,1.2-1.8c0.4-0.4,0-0.1,0.5-0.5c0.1-0.1,0.1-0.1,0.3-0.2c0.1-0.1,0.2-0.1,0.3-0.2
		c0.3-0.3,0.7-0.5,1.1-0.7c0.3-0.1,0.7-0.2,1-0.3c0.2-0.1,0.5-0.2,0.8-0.2c0.3-0.1,0.6-0.1,0.9-0.2c0.4-0.1,1.8-0.3,2.2-0.2
		c0.6,0.1,0,0.1,0.6,0l1.4,0.1c0.2,0,0.5,0.1,0.7,0.1c0.4,0.1,0.9,0.2,1.4,0.2c0.2,0,0.4,0.1,0.7,0.1c0.2,0,0.4,0,0.7,0.1
		c0.2,0.1,0.4,0.1,0.6,0.2c0.3,0.1,0.4,0.1,0.6,0.2c0.8,0.2,1.7,0.5,2.4,0.8c0.2,0.1,0.4,0.1,0.6,0.2c0.5,0.2,1,0.5,1.5,0.7
		c0,0,0,0,0,0l0.1,0c0,0,0,0,0,0l0-0.5c0-0.2,0-0.3-0.1-0.5l-0.2-2c0-0.3,0-0.8-0.2-0.9l-0.7-0.4c-0.2-0.1-0.5-0.2-0.7-0.4
		c-1-0.5-0.6-0.3-1.5-0.7c-0.5-0.2-1-0.4-1.6-0.6c-1.2-0.4-2.3-0.6-3.7-0.7c-0.3,0-0.7,0-1-0.1c-0.9-0.1-1.8,0-2.7,0l-1.1,0.1
		c-1,0-2.6,0.4-3.6,0.7c-0.7,0.2-2.7,1-3.1,1.3c-0.8,0.5-1.4,0.8-2.2,1.5c-0.2,0.2-0.4,0.4-0.6,0.6c-0.5,0.6-1.4,1.4-1.8,2
		c-0.2,0.3-1.1,2.2-1.2,2.6C12.3,38,12.2,38,12,39.2c0,0.2-0.1,0.4-0.1,0.5c-0.1,0.4-0.1,0.7-0.1,1.1c-0.1,1.1,0.2,3.2,0.6,4.4
		c0.3,0.9,0.3,0.9,0.7,1.9C13.4,47.9,13.9,48.9,14.4,49.5z M45.5,39.3c-0.4-0.2-0.4-0.1-0.8-0.4l-3.6-2.7l-1.5-1l0.2-0.5l-0.1-2.2
		c0-0.2-0.1-0.4-0.1-0.5c0-0.3,0.3-0.1,0.4,0c0.2,0.1,0.3,0.2,0.5,0.3c0.2,0.1,0.7,0.4,1,0.6c0.5,0.3,1.9,1.3,1.9,1.3
		c0.2,0.1,1.2,0.9,1.4,1.1c0.2,0.2,0.3,1.7,0.4,2C45.5,37.9,45.6,38.8,45.5,39.3z M27.4,35.8C27.3,36,27.2,36,27,36.1
		c-0.1,0.1-0.4,0.2-0.4,0c0-0.1,0.1-0.1,0.2-0.2c0.1-0.1,0.1-0.1,0.2-0.2C27.1,35.6,27.3,35.6,27.4,35.8z M48.7,42.3
		c-0.3-0.3-0.6-0.5-0.8-0.8l-1.8-1.5c0.4-1.1,0.5-1.3,0.5-2.4c0-0.4-0.2-0.9,0-1.1c0.9,0.7,1.7,1.3,2.5,2.1c0.2,0.2,0.8,0.5,0.8,0.8
		c0,0.5,0.1,3.2-0.2,3.7C49.2,42.8,49,42.5,48.7,42.3z M50.4,42.1c-0.1,0.6,0,0.3,0,0.6c0,0.1-0.2,0.8-0.3,1l1.1,0.9
		c0.3,0.3,0.1,0.2,0.5,0.5c0.7,0.6,0.6,0.7,1,1.1c0.2,0.2,0.3,0.3,0.5,0.5c0.2,0.1,0.3,0.4,0.5,0.5c0.5,0.5,1.1,0.9,1.5,1.5
		c0.3,0.4,1.7,1.8,2,2.1c0.2,0.2,0.4,0.3,0.6,0.4l0.6,0.5c0.4-0.2,1.5-1.6,1.8-2l0.5-0.8l-1.5-1.2l-1.4-1.3
		c-0.5-0.5-0.9-0.9-1.4-1.4c-0.2-0.2-0.5-0.4-0.7-0.6c-0.3-0.2-0.4-0.5-0.7-0.7c-0.7-0.5-1.2-1.1-1.8-1.6l-1.1-1
		c-0.2-0.2-0.5-0.4-0.7-0.6c-0.1-0.1-0.2-0.2-0.4-0.3c-0.2-0.1-0.3-0.2-0.3,0.1C50.5,41.1,50.6,41.1,50.4,42.1z M34,43.4
		c0.1-0.4,0.6-0.9,1.1-0.9c0.4,0,1.1,0.5,1.2,0.8c-0.7,0.3-1.3,0.7-1.9,0.5C34.2,43.6,34.2,43.5,34,43.4z M59.1,52.2
		c0.1-0.2,0.1-0.2,0.3-0.3c0.6-0.5,1.2-1.3,1.5-1.6c0.1-0.1,0.2-0.2,0.3-0.3c0.1-0.1,0.1-0.2,0.3-0.3c0.4,0.3,2.3,1.6,2.6,1.7
		c0.3,0.2,0.7,0.3,0.8,0.6l-0.6,0.7c-0.8,0.9-1.7,1.6-1.9,1.8l-1.8-1L59.1,52.2"/>
	<path class="st0" d="M55,56.8c-0.7-1-0.2-1.4-1.3-1.4l-1.1,1.4c-0.1,0.2-0.3,0.5-0.5,0.7c-0.4,0.5-1.7,1.3-2.3,1.4
		c-0.8,0-0.7-0.1-0.9,0.3c-0.2,0.5-0.3,0.6-0.3,1.1c1.5,0.2,1.6,0.3,2.9,0.5c0.4,0.1,0.6,0.2,0.9,0.2c0.3,0.1,0.7,0.1,1,0.2
		c0.9,0.2,0.9,0.2,1.8,0.4c0.3,0,0.6,0.1,0.9,0.2c-0.3,0.3-0.5,0.4-1.1,0.6c-0.6,0.3-1.7,0.8-2.3,0.9c-0.3,0.1-1.5,0.3-1.8,0.2
		l-2.1-0.9c-0.3-0.4-0.9-1.4-0.9-2.1c0-0.8-0.1-0.8-0.1-1.3c0-0.4,0-0.9,0-1.4c0-0.6,0.1-1.6,0.1-2.1c0-0.2,0-0.6,0-0.7v-2.2
		c0-0.5-0.3-3.3-0.3-3.6L47.5,48c-0.4,0.3-0.5,0.3-0.7,0.9c-0.3,0.9-0.4,0.7-0.4,1.6c0,0.2,0.1,0.1,0.1,0.3c0.3,1.3,0.2,1,0.3,2
		c0.1,0.8,0.1,3.4,0.1,4L46.8,60c-0.1,1.1-0.1,0.9,0,1.9c0.1,0.8,0.3,1.6,0.7,2.2c0.4,0.5,0.7,0.6,1.2,0.8c1.5,0.6,2.2,0.3,3.7,0.1
		c0.2,0,0.4-0.1,0.7-0.2c0.2-0.1,0.4-0.1,0.7-0.2c0.1,0,0.9-0.4,1.2-0.6c0.5-0.2,1.6-1,2.3-1.2c0.5-0.1,1.8-0.4,2.3-0.4
		c0.6,0,0.9,0,1.1-0.2c0.3-0.4,0.4-0.6,0.4-1.1c-0.6-0.4-0.2-0.2-1.1-0.3c-0.4-0.1-0.7-0.2-1.1-0.2c-0.8-0.1-1.5-0.3-2.2-0.5
		l-2.9-0.5c-0.5-0.1-0.5-0.2-1.1-0.2c-0.3,0-0.3,0-0.5-0.1c0.3-0.5,0.8-1.1,1.1-1.5c0.3-0.5,0.2-0.4,0.4-0.5
		c0.2,0.6,0.3,0.9,0.8,1.3c0.2,0.2,0.4,0.3,0.6,0.5c0.4,0.2,1.2,0.4,1.5,0.3c0.1,0,1-0.4,1.1-0.6c0.1-0.1,0.5-1,0.5-1.2
		c0-0.9,0-1.1-0.3-1.9c-0.2-0.5-0.2-0.9-0.7-1c-0.5,1.9-0.6,1.2,0,2.9l-0.5,0.3c-0.1,0-1-0.2-1.1-0.3C55.5,57.3,55.2,57,55,56.8"/>
	<path class="st0" d="M40.9,51.2c-1.3,0.5-4.1,1-5.6,1.2l-1.3,0.2V53c0.8,0,2.2,0,2.9,0.1c0.2,0,0.6,0.1,0.7,0.1
		c0.1,0,1.9-0.2,2-0.3c0.2-0.1,0.2-0.1,0.6-0.2c0.3-0.1,0.4,0,0.6-0.2c0.4-0.2,1.7-0.5,2.6-1.3c0.8-0.7,0.6-0.9,0.9-1.4
		c0.3-0.4,0.9-0.1,1.9-1.1c0.7-0.6,0.8-1.3,0.9-2.2c0-0.4,0-1.1,0-1.5c0-0.3,0-0.4-0.1-0.7c-0.1-0.2-0.1-0.4-0.1-0.6l-0.4-1.1
		c-0.5,0-0.4,0-0.7,0.8c-0.3,0.9,0.4,1.6,0.4,4.1l-1.6,0.7c-0.3-0.6-0.1-0.3-0.3-0.8c-0.2-0.9-0.5-1.3-1.1-2
		C43.1,45,42.6,44.8,42,45c-0.9,0.3-1.1,1-1.4,1.6c-0.3,0.7-0.7,1.8-0.2,2.4c0.4,0.5,0.8,0.6,1.3,0.7c0.2,0,1.2,0.1,1.4,0.1
		c0.2,0,0.2-0.1,0.4,0.1C42.7,50.4,41.7,51,40.9,51.2z M43.4,48.4c-0.1,0.1-0.8,0-1,0c-0.8-0.2-2-0.6-1.1-1.5
		c0.6-0.6,0.9-0.3,1.3,0.2c0.2,0.2,0.3,0.4,0.5,0.6C43.2,47.8,43.4,48.2,43.4,48.4"/>
	<path class="st0" d="M59.5,65.9c0.6-0.2,0.4,0.1,0.8-0.4c0.1-0.2,0.4-0.5,0.4-0.8c0-0.2-0.1-0.2-0.3-0.4c-0.3-0.2-0.9-0.7-1.1-0.7
		L58.8,64c-0.1,0.2-0.1,0.3-0.3,0.4c-0.2-0.1-1.1-0.7-1.3-0.7c-0.9,1.1-1.1,1.2-0.3,1.8c0.8,0.6,0.7,0.4,1.8-0.2l0.4,0.4l-0.2,0
		c-0.3,0-0.9,0.8-0.9,1.1c0,0.3,0.8,1.1,1.3,0.9c0,0,0.9-0.5,0.9-1c0-0.2-0.2-0.5-0.3-0.6C59.7,66.1,59.5,66.1,59.5,65.9"/>
	<path class="st0" d="M32.3,55.6c1.5,0.9,1.1,0.8,1.9-0.1c0.2-0.2,0.3-0.3,0.3-0.7l-0.7-0.4c-0.4-0.2-0.4-0.4-0.7-0.4
		c-0.2,0-0.6,0.5-0.7,0.7c-1.3-0.8-1.2-1.1-1.9,0.1c-0.3,0.5-0.1,0.7,0.1,0.9C31.6,56.7,31.9,55.9,32.3,55.6"/>
	<path class="st0" d="M43.4,55c0.1,0,0,0,0.1,0c0.7,0.4,0.9,0.8,1.5,0.1c0.3-0.4,0.5-0.3,0.4-1c-0.2-0.1-1-0.7-1.1-0.7
		c-0.5-0.1-0.6,0.6-0.9,0.8c-1.4-0.7-1.3-0.9-1.8-0.2c-0.3,0.6-0.5,0.8,0.2,1.2c0.5,0.3,0.8,0.7,1.3,0.2
		C43.2,55.3,43.3,55.1,43.4,55"/>
	<path class="st0" d="M51.2,52.7c0,0.2,0.3,0.5,0.5,0.6c0.2,0.1,0.5,0.4,0.6,0.4c0.7,0.3,1.2-0.7,1.2-0.9c0-0.4,0.1-0.5-0.3-0.8
		c-0.3-0.3-0.4-0.3-0.7-0.5c-0.3-0.2-0.3-0.4-1,0.2C51.1,52.1,51.2,52.1,51.2,52.7"/>
	<path class="st0" d="M52,68c0.2,0,0.5-0.3,0.6-0.5c0.4-0.6,0.4-0.4,0.4-1L52.2,66c-0.8-0.5-0.9-0.4-1.3,0.2
		c-0.1,0.2-0.2,0.4-0.3,0.6c0,0.4,0.1,0.4,0.3,0.6C51.1,67.6,51.7,68,52,68"/>
	<path class="st0" d="M39.6,37.5c-0.2,0.1-0.3,0.4-0.5,0.6c-0.5,0.9,0,1,0.4,1.3c0.2,0.2,0.3,0.4,0.7,0.3c0.4-0.1,0.4-0.2,0.6-0.5
		C41.4,38.2,40.1,37.5,39.6,37.5"/>
	<path class="st0" d="M36.1,61.9c-0.1-0.2-0.5-0.3-0.6-0.4c-0.7-0.4-0.7-0.4-1.2,0.3c-0.1,0.2-0.3,0.4-0.2,0.7
		c0.1,0.2,1,0.7,1.3,0.7c0.2,0,0.3-0.3,0.5-0.5C36.2,62.3,36.1,62.4,36.1,61.9"/>
</g>
</svg>
